<svg xmlns="http://www.w3.org/2000/svg" width="109.202" height="109.162" viewBox="0 0 109.202 109.162">
  <g id="Group_58" data-name="Group 58" transform="translate(-416.596 -401.518)">
    <g id="Group_12" data-name="Group 12">
      <path id="Path_6" data-name="Path 6" d="M472.208,426.2c2.036.2,5.839,1.381,6.609,2.058a2.336,2.336,0,0,0,.873.413,3.3,3.3,0,0,1,1.137.7c.3.287,1.175,1.026,1.9,1.642a7.283,7.283,0,0,1,1.357,1.272,3.438,3.438,0,0,0,.707.942,3.441,3.441,0,0,1,.707.942,8.522,8.522,0,0,0,.623,1.43,16.815,16.815,0,0,1,1.97,7.673,16.269,16.269,0,0,1-.743,4.906c-.145.386-.394,1.159-.54,1.729a8.577,8.577,0,0,1-.622,1.728c-.206.386-.578,1.2-.806,1.788a5.535,5.535,0,0,1-.824,1.5,1.561,1.561,0,0,0-.412.67,1.78,1.78,0,0,1-.432.731,13.189,13.189,0,0,0-.9,1.2,5.849,5.849,0,0,1-.8.993,3.411,3.411,0,0,0-.637.913,17.218,17.218,0,0,1-2.073,2.452,18.362,18.362,0,0,0-1.888,2.168,13.843,13.843,0,0,1-2.891,2.9,7.331,7.331,0,0,0-1.455,1.4c-1.191,1.46-1.722,1.68-2.839,1.185-.447-.207-.833-.433-.832-.535a19.872,19.872,0,0,0-1.983-2.151,98.646,98.646,0,0,1-7.061-8.05,2.689,2.689,0,0,0-.667-.8c-.081,0-.263-.266-.4-.593a3.026,3.026,0,0,0-.727-1.044,3.365,3.365,0,0,1-.706-1.206c-.12-.408-.662-1.654-1.185-2.778a23.917,23.917,0,0,1-1.2-3.063,11.461,11.461,0,0,0-.62-1.8,14.783,14.783,0,0,1-.573-6.238,7.239,7.239,0,0,1,.44-1.953,10.234,10.234,0,0,0,.744-1.748,8.8,8.8,0,0,1,.806-1.808,5.848,5.848,0,0,0,.639-1.219,8.939,8.939,0,0,1,2.568-3.427c.327-.181.593-.383.594-.465a4.933,4.933,0,0,1,1.126-.869,3.844,3.844,0,0,0,1.126-.889c0-.1.287-.283.654-.4a3.206,3.206,0,0,0,.961-.5,28.183,28.183,0,0,1,6.347-1.774C470.884,426.168,471.76,426.174,472.208,426.2Zm-3.732,7.108a6.162,6.162,0,0,0-.7.485,2.628,2.628,0,0,1-.756.382,10.9,10.9,0,0,0-2.047,1.6,7.543,7.543,0,0,0-2.475,4.854,10.282,10.282,0,0,0,.625,4.282,2.652,2.652,0,0,1,.3.837c0,.387,1.577,2.047,2.632,2.767a8.227,8.227,0,0,1,1.014.78c.262.389,1.686.805,3.173.936,1.853.154,3.79-.14,4.364-.707a2.527,2.527,0,0,1,.532-.425,6.906,6.906,0,0,0,2.251-1.657,4.419,4.419,0,0,1,.638-.974,6.408,6.408,0,0,0,.929-1.971c.229-.752.5-1.708.624-2.156a3.279,3.279,0,0,0-.17-2.14c-.24-.735-.519-1.735-.638-2.2a7.945,7.945,0,0,0-3.563-3.669,2.13,2.13,0,0,1-.914-.495,5.291,5.291,0,0,0-1.828-.908A8.86,8.86,0,0,0,468.476,433.3Z"/>
    </g>
    <g id="Group_13" data-name="Group 13">
      <path id="Path_7" data-name="Path 7" d="M482.324,470.674c.772.29,1.911.664,2.5.83a11.4,11.4,0,0,1,3.959,2.266,3.219,3.219,0,0,0,.913.7c.265,0,1.091,1.412,1.25,2.188.278,1.245-.516,4.336-1.127,4.333a4.491,4.491,0,0,0-1.064.808,16.5,16.5,0,0,1-2.782,1.755,15.141,15.141,0,0,1-4.654,1.5c-4.569.929-5.2.966-11.476.866-5.908-.1-5.969-.1-9.1-.81a18.124,18.124,0,0,1-3.214-.9.527.527,0,0,0-.427-.166.873.873,0,0,1-.529-.187,12.286,12.286,0,0,0-1.645-.784,6.526,6.526,0,0,1-3.81-3.345c-1.007-1.942-1-3.164.008-4.584a9.694,9.694,0,0,1,3.584-2.973c3-1.285,5.9-2.164,7.185-2.156a1.476,1.476,0,0,1,1.32.64,4.365,4.365,0,0,0,1.217.9c.549.227.67.412.667.9,0,.733-.578,1.2-1.7,1.375-.408.059-.755.179-.755.26a3.088,3.088,0,0,1-1.285.257c-1.733.152-5.244,1.271-5.716,1.819-1.026,1.175-.748,2.318.654,2.9.447.186.813.392.812.474,0,.306,1.766,1.009,2.845,1.158a15.648,15.648,0,0,1,2.339.585c1.159.435,1.586.458,8.554.481,6.3.039,7.416,0,7.947-.277a8.237,8.237,0,0,1,2.061-.537,10.043,10.043,0,0,0,3.552-1.2,3.327,3.327,0,0,1,.818-.423c1.082-.4,1.226-.583,1.232-1.5.009-1.447-1.107-2.207-4.362-3.022a15.262,15.262,0,0,0-2.4-.4c-.407,0-.753-.086-.753-.188s-.345-.226-.793-.31a1.9,1.9,0,0,1-1.036-.434c-.364-.451-.052-1.488.582-1.891a7.086,7.086,0,0,0,1.106-.89C479.476,469.964,480.372,469.969,482.324,470.674Z"/>
    </g>
    <g id="Group_24" data-name="Group 24">
      <path id="Path_18" data-name="Path 18" d="M471.328,426.178c.341,0,.661.007.88.018,2.036.2,5.839,1.381,6.609,2.058a2.336,2.336,0,0,0,.873.413,3.3,3.3,0,0,1,1.137.7c.3.287,1.175,1.026,1.9,1.642a7.283,7.283,0,0,1,1.357,1.272,3.438,3.438,0,0,0,.707.942,3.441,3.441,0,0,1,.707.942,8.522,8.522,0,0,0,.623,1.43,16.815,16.815,0,0,1,1.97,7.673,16.269,16.269,0,0,1-.743,4.906c-.145.386-.394,1.159-.54,1.729a8.577,8.577,0,0,1-.622,1.728c-.206.386-.578,1.2-.806,1.788a5.535,5.535,0,0,1-.824,1.5,1.561,1.561,0,0,0-.412.67,1.78,1.78,0,0,1-.432.731,13.189,13.189,0,0,0-.9,1.2,5.849,5.849,0,0,1-.8.993,3.411,3.411,0,0,0-.637.913,17.218,17.218,0,0,1-2.073,2.452,18.362,18.362,0,0,0-1.888,2.168,13.843,13.843,0,0,1-2.891,2.9,7.331,7.331,0,0,0-1.455,1.4c-.821,1.006-1.328,1.424-1.93,1.424a2.277,2.277,0,0,1-.909-.239c-.447-.207-.833-.433-.832-.535a19.872,19.872,0,0,0-1.983-2.151,98.646,98.646,0,0,1-7.061-8.05,2.689,2.689,0,0,0-.667-.8c-.081,0-.263-.266-.4-.593a3.026,3.026,0,0,0-.727-1.044,3.365,3.365,0,0,1-.706-1.206c-.12-.408-.662-1.654-1.185-2.778a23.917,23.917,0,0,1-1.2-3.063,11.461,11.461,0,0,0-.62-1.8,14.783,14.783,0,0,1-.573-6.238,7.239,7.239,0,0,1,.44-1.953,10.234,10.234,0,0,0,.744-1.748,8.8,8.8,0,0,1,.806-1.808,5.848,5.848,0,0,0,.639-1.219,8.939,8.939,0,0,1,2.568-3.427c.327-.181.593-.383.594-.465a4.933,4.933,0,0,1,1.126-.869,3.844,3.844,0,0,0,1.126-.889c0-.1.287-.283.654-.4a3.206,3.206,0,0,0,.961-.5,28.183,28.183,0,0,1,6.347-1.774C470.586,426.186,470.969,426.178,471.328,426.178Zm-9.453,43.84h.017a1.476,1.476,0,0,1,1.32.64,4.365,4.365,0,0,0,1.217.9c.549.227.67.412.667.9,0,.733-.578,1.2-1.7,1.375-.408.059-.755.179-.755.26a3.088,3.088,0,0,1-1.285.257c-1.733.152-5.244,1.271-5.716,1.819-1.026,1.175-.748,2.318.654,2.9.447.186.813.392.812.474,0,.306,1.766,1.009,2.845,1.158a15.648,15.648,0,0,1,2.339.585c1.159.435,1.586.458,8.554.481,1.338.008,2.443.013,3.358.013,3.388,0,4.171-.068,4.59-.29a8.237,8.237,0,0,1,2.061-.537,10.043,10.043,0,0,0,3.552-1.2,3.327,3.327,0,0,1,.818-.423c1.082-.4,1.226-.583,1.232-1.5.009-1.447-1.107-2.207-4.362-3.022a15.262,15.262,0,0,0-2.4-.4c-.407,0-.753-.086-.753-.188s-.345-.226-.793-.31a1.9,1.9,0,0,1-1.036-.434c-.364-.451-.052-1.488.582-1.891a7.086,7.086,0,0,0,1.106-.89,1.634,1.634,0,0,1,1.292-.547,7.036,7.036,0,0,1,2.233.528c.772.29,1.911.664,2.5.83a11.4,11.4,0,0,1,3.959,2.266,3.219,3.219,0,0,0,.913.7c.265,0,1.091,1.412,1.25,2.188.277,1.244-.515,4.333-1.126,4.333h0a4.5,4.5,0,0,0-1.064.808,16.5,16.5,0,0,1-2.782,1.755,15.141,15.141,0,0,1-4.654,1.5,31.532,31.532,0,0,1-7.987.9c-.95,0-2.077-.016-3.489-.038-5.908-.1-5.969-.1-9.1-.81a18.124,18.124,0,0,1-3.214-.9.527.527,0,0,0-.427-.166.873.873,0,0,1-.529-.187,12.286,12.286,0,0,0-1.645-.784,6.526,6.526,0,0,1-3.81-3.345c-1.007-1.942-1-3.164.008-4.584a9.694,9.694,0,0,1,3.584-2.973C457.7,470.894,460.584,470.018,461.876,470.018Zm9.983-68.5c-2.282,0-4.931.132-7.345.366-1.631.173-3.283.387-3.67.487a16.145,16.145,0,0,1-2.142.394,4.57,4.57,0,0,0-1.531.4,9.663,9.663,0,0,1-2.144.7,30.865,30.865,0,0,0-3.164,1,12.9,12.9,0,0,1-1.634.6,55.379,55.379,0,0,0-5.518,2.7,4.3,4.3,0,0,1-.512.363c-5.01,2.984-6.074,3.711-7.734,5.29a16.193,16.193,0,0,1-2.15,1.82,13.44,13.44,0,0,0-2.91,2.692,8.5,8.5,0,0,1-1.991,2.392h0c-.143,0-.491.344-.778.749-.268.426-.884,1.278-1.336,1.886-.924,1.237-1.171,1.623-2.241,3.246a10.28,10.28,0,0,1-.863,1.217c-.2.162-3.176,6.276-3.488,7.211a12.964,12.964,0,0,1-.641,1.544,10.7,10.7,0,0,0-.622,1.728,5.231,5.231,0,0,1-.374,1.1,14.685,14.685,0,0,0-1.06,3.375,7.544,7.544,0,0,1-.314,1.424c-1.331,4.311-1.49,16.983-.3,22.389.179.775.436,2.02.574,2.754.3,1.55.716,2.857.92,2.858.1,0,.162.144.161.307a38.66,38.66,0,0,0,2.085,5.412c.262.511.865,1.859,1.326,3.023a12.47,12.47,0,0,0,1.329,2.555,1.816,1.816,0,0,1,.485.614,5.021,5.021,0,0,0,.706,1.1,4.95,4.95,0,0,1,.706,1.125,9.916,9.916,0,0,0,1.111,1.6,8.652,8.652,0,0,1,1.11,1.637,6.226,6.226,0,0,0,1.153,1.393,54.977,54.977,0,0,1,3.905,4.384c.242.327.526.574.648.574a36.939,36.939,0,0,1,4.115,3.367,14.3,14.3,0,0,0,1.825,1.376c.548.37,1.644,1.09,2.415,1.6a17.363,17.363,0,0,0,3,1.771,3.339,3.339,0,0,1,1.177.741c0,.1.121.184.284.185a6.036,6.036,0,0,1,1.382.6,12.608,12.608,0,0,0,2.134.91,10.442,10.442,0,0,1,1.646.642,14.039,14.039,0,0,0,2.4.748,10.65,10.65,0,0,1,2.033.644,8.794,8.794,0,0,0,2.1.522,21.439,21.439,0,0,1,2.381.5,4.464,4.464,0,0,0,1.4.212,1.8,1.8,0,0,1,1,.189c.222.348,3.989.717,7.758.741q.315,0,.635,0c3.619,0,7.618-.339,7.62-.666,0-.08.374-.158.831-.158h.041a7.042,7.042,0,0,0,1.7-.275,11.444,11.444,0,0,1,2.142-.435,8.109,8.109,0,0,0,2.02-.477,8.234,8.234,0,0,1,1.817-.58,16.066,16.066,0,0,0,2.347-.719,18.322,18.322,0,0,1,1.858-.62,11.729,11.729,0,0,0,1.859-.8,5.882,5.882,0,0,1,1.572-.683h.006c.2,0,.342-.08.343-.161a3.518,3.518,0,0,1,1.166-.767,18.365,18.365,0,0,0,2.106-1.189,21.973,21.973,0,0,1,2.106-1.23,12.059,12.059,0,0,0,2.312-1.636,10.007,10.007,0,0,1,1.781-1.395,9.7,9.7,0,0,0,1.7-1.273c.574-.506,1.27-1.113,1.536-1.356.573-.485,4.224-4.354,4.963-5.246a9.486,9.486,0,0,0,.823-1.258,3.45,3.45,0,0,1,.842-1.013c1-.788,5.265-7.995,5.271-8.932,0-.142.063-.264.144-.264h0a6.7,6.7,0,0,0,1.4-2.62,5.548,5.548,0,0,1,.517-1.321,11.029,11.029,0,0,0,.849-2.256,18.768,18.768,0,0,1,.644-1.993,7.925,7.925,0,0,0,.4-1.627c.106-.692.337-1.852.5-2.584.147-.733.4-2.239.53-3.358a9.561,9.561,0,0,1,.483-2.3c.308-.385.371-10.612.067-10.8a10.678,10.678,0,0,1-.555-2.571,21.984,21.984,0,0,0-.492-2.855,11.869,11.869,0,0,1-.276-1.571,15.449,15.449,0,0,0-.616-2.551,8.478,8.478,0,0,1-.5-1.939,4.549,4.549,0,0,0-.5-1.531,13.28,13.28,0,0,1-.8-2.042A10.4,10.4,0,0,0,521,433.69c-.323-.491-1.088-1.963-1.712-3.27a33.857,33.857,0,0,0-1.651-3.127,13.341,13.341,0,0,1-.827-1.411,6.241,6.241,0,0,0-1.011-1.29,3.258,3.258,0,0,1-.688-.779,55.352,55.352,0,0,0-4.65-5.835c-.506-.512-1.377-1.312-1.925-1.764a14.492,14.492,0,0,1-1.216-1.047c-.2-.225-2.918-2.524-4.053-3.448a13.27,13.27,0,0,0-1.42-.926,15.939,15.939,0,0,1-3.349-2.058,7.461,7.461,0,0,0-1.624-.988c-.731-.351-2.011-.97-2.864-1.383a10.536,10.536,0,0,0-1.788-.745,3.645,3.645,0,0,1-1-.393,25.19,25.19,0,0,0-2.785-.954,16.03,16.03,0,0,1-2.44-.83,8.01,8.01,0,0,0-1.932-.5,19.305,19.305,0,0,1-2.137-.441,55.165,55.165,0,0,0-6.718-.856C474.275,401.559,473.123,401.518,471.859,401.518Z" fill="#fff"/>
    </g>
    <g id="Group_25" data-name="Group 25">
      <path id="Path_19" data-name="Path 19" d="M471.568,432.825a2.966,2.966,0,0,1,.9.1,5.291,5.291,0,0,1,1.828.908,2.13,2.13,0,0,0,.914.495,7.945,7.945,0,0,1,3.563,3.669c.119.469.4,1.469.638,2.2a3.279,3.279,0,0,1,.17,2.14c-.125.448-.4,1.4-.624,2.156a6.408,6.408,0,0,1-.929,1.971,4.419,4.419,0,0,0-.638.974,6.906,6.906,0,0,1-2.251,1.657,2.527,2.527,0,0,0-.532.425,5.766,5.766,0,0,1-3.373.747c-.328,0-.661-.013-.991-.041-1.486-.131-2.91-.548-3.173-.936a8.227,8.227,0,0,0-1.014-.78c-1.055-.72-2.634-2.38-2.632-2.767a2.652,2.652,0,0,0-.3-.837,10.282,10.282,0,0,1-.625-4.282,7.543,7.543,0,0,1,2.475-4.854,10.9,10.9,0,0,1,2.047-1.6,2.628,2.628,0,0,0,.756-.382,6.162,6.162,0,0,1,.7-.485A8.941,8.941,0,0,1,471.568,432.825Z" fill="#fff"/>
    </g>
  </g>
</svg>
