<svg xmlns="http://www.w3.org/2000/svg" width="109.169" height="109.239" viewBox="0 0 109.169 109.239">
  <g id="Group_57" data-name="Group 57" transform="translate(-495.622 -210.308)">
    <g id="Group_56" data-name="Group 56" transform="translate(78 -30)">
      <g id="Group_8" data-name="Group 8">
        <path id="Path_2" data-name="Path 2" d="M473.8,260.242a7.141,7.141,0,0,0,1.441.844,3.274,3.274,0,0,1,1.076.679,9.925,9.925,0,0,0,1.582,1.212c.771.514,1.643,1.131,1.927,1.356a7.89,7.89,0,0,0,1.32.721,14.13,14.13,0,0,1,3.389,2.2,3.055,3.055,0,0,0,1.116.7,8.548,8.548,0,0,1,2.9,1.77c0,.122.3.348.649.493a19,19,0,0,1,3.207,1.955,20.654,20.654,0,0,0,3.349,2.058,23.449,23.449,0,0,1,4.911,3.229,8.2,8.2,0,0,0,1.279.721c1.016.475,1.48,1.109,1.01,1.392-.143.081-2.976.185-6.3.226-9.006.128-54.865-.277-55.271-.484-.549-.248-.076-.9.986-1.359a3.52,3.52,0,0,0,1.146-.747,11.182,11.182,0,0,1,2.966-1.958,2.1,2.1,0,0,0,.879-.524c0-.163.471-.425,3.291-1.813a7.782,7.782,0,0,0,1.452-.847,65.932,65.932,0,0,1,6.852-4.358,2.9,2.9,0,0,0,1.023-.707,8.915,8.915,0,0,1,2.8-1.674,12.622,12.622,0,0,0,1.738-1.069,5.082,5.082,0,0,1,1.247-.705,3.535,3.535,0,0,0,1.084-.625,2.314,2.314,0,0,1,.8-.484,3.035,3.035,0,0,0,.962-.768C470.239,260.037,472.688,259.359,473.8,260.242Z"/>
      </g>
      <g id="Group_9" data-name="Group 9">
        <path id="Path_3" data-name="Path 3" d="M440.736,280.147a1.229,1.229,0,0,1,.709.6,2.311,2.311,0,0,0,.871.841,4.764,4.764,0,0,1,1.014.719,6.554,6.554,0,0,0,1.238.823c.772.412,6.09,3.6,6.881,4.138.2.124.588.411.852.617a15.32,15.32,0,0,0,2.983,1.893,5.251,5.251,0,0,1,1.056.6c.324.246,1.035.7,1.563,1.008a8.717,8.717,0,0,1,1.217.823,8.358,8.358,0,0,0,1.259.741,15.654,15.654,0,0,1,1.826,1.193,4.376,4.376,0,0,0,1.36.783,2.133,2.133,0,0,1,.994.638,1.585,1.585,0,0,0,.832.494,3.188,3.188,0,0,1,1.217.823,3.721,3.721,0,0,0,1.115.822,4.484,4.484,0,0,1,1.116.7,5.461,5.461,0,0,0,6.09.262,8.768,8.768,0,0,1,1.39-.786,5.6,5.6,0,0,0,1.269-.929,4.864,4.864,0,0,1,1.33-.929,3.926,3.926,0,0,0,.982-.6,2.153,2.153,0,0,1,1.042-.483,1.756,1.756,0,0,0,.961-.524,7.9,7.9,0,0,1,1.617-1.131,10.557,10.557,0,0,0,1.227-.787,7.216,7.216,0,0,1,1.227-.706,18.266,18.266,0,0,0,2.065-1.21,4.926,4.926,0,0,1,1.145-.686,3.592,3.592,0,0,0,.982-.605,3.375,3.375,0,0,1,.961-.605c.183,0,.593-.282,1.739-1.212a.788.788,0,0,1,.388-.2,3.475,3.475,0,0,0,.777-.464,26.867,26.867,0,0,1,2.474-1.452c1-.523,2.126-1.168,2.494-1.431a2.771,2.771,0,0,1,.818-.484,2.659,2.659,0,0,0,.839-.606,3.869,3.869,0,0,1,1.145-.726,3.2,3.2,0,0,0,1.166-.808c.8-.83,1.289-.868,1.733-.152.323.471.335,1.8.231,15.424-.074,8.74-.218,15.585-.346,16.521a3.581,3.581,0,0,1-1.158,2.682,5.656,5.656,0,0,1-1.087,1.094,1.555,1.555,0,0,0-.573.4,6.615,6.615,0,0,1-2.042.8c-1.571.4-2.06.395-28.28.172-25.772-.2-26.729-.226-27.7-.6a8.146,8.146,0,0,1-1.219-.578c-.1-.082-.608-.452-1.1-.822a4.572,4.572,0,0,1-2.218-3.7c-.292-2.141-.113-31.193.176-31.721A1.272,1.272,0,0,1,440.736,280.147Z"/>
      </g>
    </g>
    <g id="Group_26" data-name="Group 26" transform="translate(78 -30)">
      <path id="Path_20" data-name="Path 20" d="M472.5,259.853a2.076,2.076,0,0,1,1.306.389,7.141,7.141,0,0,0,1.441.844,3.274,3.274,0,0,1,1.076.679,9.925,9.925,0,0,0,1.582,1.212c.771.514,1.643,1.131,1.927,1.356a7.89,7.89,0,0,0,1.32.721,14.13,14.13,0,0,1,3.389,2.2,3.055,3.055,0,0,0,1.116.7,8.548,8.548,0,0,1,2.9,1.77c0,.122.3.348.649.493a19,19,0,0,1,3.207,1.955,20.654,20.654,0,0,0,3.349,2.058,23.449,23.449,0,0,1,4.911,3.229,8.2,8.2,0,0,0,1.279.721c1.016.475,1.48,1.109,1.01,1.392-.143.081-2.976.185-6.3.226-1.187.017-3.014.024-5.293.024-15.012,0-49.625-.329-49.978-.508-.549-.248-.076-.9.986-1.359a3.52,3.52,0,0,0,1.146-.747,11.182,11.182,0,0,1,2.966-1.958,2.1,2.1,0,0,0,.879-.524c0-.163.471-.425,3.291-1.813a7.782,7.782,0,0,0,1.452-.847,65.932,65.932,0,0,1,6.852-4.358,2.9,2.9,0,0,0,1.023-.707,8.915,8.915,0,0,1,2.8-1.674,12.622,12.622,0,0,0,1.738-1.069,5.082,5.082,0,0,1,1.247-.705,3.535,3.535,0,0,0,1.084-.625,2.323,2.323,0,0,1,.8-.484h0a3.044,3.044,0,0,0,.962-.768A5.9,5.9,0,0,1,472.5,259.853ZM440.52,280.13a1.413,1.413,0,0,1,.216.017,1.229,1.229,0,0,1,.709.6,2.311,2.311,0,0,0,.871.841,4.764,4.764,0,0,1,1.014.719,6.554,6.554,0,0,0,1.238.823c.772.412,6.09,3.6,6.881,4.138.2.124.588.411.852.617a15.32,15.32,0,0,0,2.983,1.893,5.251,5.251,0,0,1,1.056.6c.324.246,1.035.7,1.563,1.008a8.717,8.717,0,0,1,1.217.823,8.358,8.358,0,0,0,1.259.741,15.654,15.654,0,0,1,1.826,1.193,4.376,4.376,0,0,0,1.36.783,2.133,2.133,0,0,1,.994.638,1.585,1.585,0,0,0,.832.494,3.188,3.188,0,0,1,1.217.823,3.721,3.721,0,0,0,1.115.822,4.484,4.484,0,0,1,1.116.7,4.352,4.352,0,0,0,2.235.971,7.633,7.633,0,0,0,1.376.15,4.163,4.163,0,0,0,2.479-.86,8.768,8.768,0,0,1,1.39-.786,5.6,5.6,0,0,0,1.269-.929,4.864,4.864,0,0,1,1.33-.929,3.926,3.926,0,0,0,.982-.6,2.161,2.161,0,0,1,1.04-.483h0a1.763,1.763,0,0,0,.958-.524,7.9,7.9,0,0,1,1.617-1.131,10.557,10.557,0,0,0,1.227-.787,7.216,7.216,0,0,1,1.227-.706,18.266,18.266,0,0,0,2.065-1.21,4.939,4.939,0,0,1,1.145-.686h0a3.608,3.608,0,0,0,.981-.605,3.385,3.385,0,0,1,.961-.605h0c.184,0,.594-.284,1.738-1.212a.791.791,0,0,1,.388-.2h0a3.49,3.49,0,0,0,.777-.464,26.867,26.867,0,0,1,2.474-1.452c1-.523,2.126-1.168,2.494-1.431a2.781,2.781,0,0,1,.818-.484h0a2.667,2.667,0,0,0,.839-.606,3.869,3.869,0,0,1,1.145-.726,3.2,3.2,0,0,0,1.166-.808c.424-.441.761-.658,1.051-.658.256,0,.474.17.682.506.323.471.335,1.8.231,15.424-.074,8.74-.218,15.585-.346,16.521a3.581,3.581,0,0,1-1.158,2.682,5.665,5.665,0,0,1-1.086,1.094h0a1.56,1.56,0,0,0-.573.4,6.615,6.615,0,0,1-2.042.8c-.894.226-1.438.323-6.577.323-3.889,0-10.409-.055-21.7-.151-25.772-.2-26.729-.226-27.7-.6a8.146,8.146,0,0,1-1.219-.578c-.1-.082-.608-.452-1.1-.822a4.572,4.572,0,0,1-2.218-3.7c-.292-2.141-.113-31.193.176-31.721A1.259,1.259,0,0,1,440.52,280.13Zm32.368-39.822c-.508,0-1.874.065-3.3.146-4.036.26-7.787.706-7.952.949a4.855,4.855,0,0,1-1.633.52,15.066,15.066,0,0,0-2.326.617,14,14,0,0,1-1.775.478,41.7,41.7,0,0,0-5.8,2c-.8.3-1.736.661-2.1.8-.347.141-.654.322-.655.424s-.43.384-.982.6a11.462,11.462,0,0,0-2.8,1.633,10.611,10.611,0,0,1-1.473.969h0a16.725,16.725,0,0,0-2.844,1.938c-.369.324-1.413,1.173-2.334,1.9a23.919,23.919,0,0,0-4.3,4.048,27.752,27.752,0,0,1-1.99,2.168,7.75,7.75,0,0,0-1.292,1.438,8.453,8.453,0,0,1-1.13,1.562,10.292,10.292,0,0,0-1.254,1.785,5.25,5.25,0,0,1-.72,1.157,2.849,2.849,0,0,0-.6.934,2.283,2.283,0,0,1-.616.852,3.236,3.236,0,0,0-.741,1.2,10.978,10.978,0,0,1-.662,1.585,47.393,47.393,0,0,0-3.1,7.214,5.881,5.881,0,0,1-.435,1.22,7.975,7.975,0,0,0-.892,2.541c-.126.549-.378,1.75-.587,2.645a44.778,44.778,0,0,0-.964,11c-.033,5.317.326,9.883.925,11.8a7.5,7.5,0,0,1,.3,1.469,10.835,10.835,0,0,0,1.039,3.307.493.493,0,0,1,.161.388,10.6,10.6,0,0,0,.7,1.9,12.152,12.152,0,0,1,.7,1.858,8.527,8.527,0,0,0,.682,1.716c.362.776.985,2.125,1.387,3a28,28,0,0,0,1.773,3.169c.606.88,1.211,1.841,1.392,2.148a17.479,17.479,0,0,0,1.212,1.739c.505.655,1.111,1.494,1.313,1.842.222.368.505.675.627.676a4.682,4.682,0,0,1,1.214,1.373c1.07,1.514,3.358,3.953,3.724,3.955a7.677,7.677,0,0,1,1.581,1.252c.75.677,1.459,1.313,1.6,1.416a4.462,4.462,0,0,1,.4.471,14.213,14.213,0,0,0,2.921,2.1,16.085,16.085,0,0,1,3.206,2.037.959.959,0,0,0,.63.33.578.578,0,0,1,.447.166,34.191,34.191,0,0,0,5.341,2.8,13.027,13.027,0,0,1,1.728.683,13.171,13.171,0,0,0,2.338.789,7.788,7.788,0,0,1,2.948.976c0,.1.243.165.549.167a13.387,13.387,0,0,1,1.954.318,61.826,61.826,0,0,0,12.149,1.067,49.533,49.533,0,0,0,10.505-.927,10.826,10.826,0,0,1,1.768-.295h.016c.321,0,.561-.1.562-.2,0-.121.2-.2.424-.2h.017c.446,0,1.013-.165,3.948-1.116,3.348-1.1,3.8-1.28,4.35-1.644a19.668,19.668,0,0,1,2.228-1.147,7.061,7.061,0,0,0,1.7-.927c0-.1.122-.182.264-.182h0a1.154,1.154,0,0,0,.632-.363,5.874,5.874,0,0,1,1.412-.928c2.7-1.41,5.255-3.125,5.258-3.553,0-.122.122-.2.264-.2h0a2.623,2.623,0,0,0,.982-.728,12.843,12.843,0,0,1,1.475-1.315c2.087-1.515,6.416-6.276,7.1-7.8a2.246,2.246,0,0,1,.718-.749,3.854,3.854,0,0,0,.944-1.135,19.146,19.146,0,0,1,1.009-1.685c.329-.487.864-1.38,1.194-1.989s.762-1.34.947-1.624a6.161,6.161,0,0,0,.578-1.219,3,3,0,0,1,.392-.813,10.9,10.9,0,0,0,1.239-2.7,5.174,5.174,0,0,1,.517-1.28,28.857,28.857,0,0,0,1.89-5.876c.168-.794.44-1.974.607-2.645.147-.671.4-2.239.551-3.46a9.859,9.859,0,0,1,.463-2.381c.307-.182.371-10.531.066-10.716a6.056,6.056,0,0,1-.436-1.979c-.136-1.02-.412-2.59-.63-3.488a17.059,17.059,0,0,1-.373-2.243,6.222,6.222,0,0,0-.317-1.408c-.16-.449-.48-1.47-.7-2.245a22.534,22.534,0,0,0-.76-2.348c-.221-.511-.542-1.348-.722-1.879a5.224,5.224,0,0,0-.806-1.472,3.313,3.313,0,0,1-.605-.982,38.016,38.016,0,0,0-2.817-5.7,8.756,8.756,0,0,1-.786-1.329,3.884,3.884,0,0,0-.828-1.126,11.446,11.446,0,0,1-1.334-1.679,15.027,15.027,0,0,0-1.172-1.556c-.283-.307-1.356-1.475-2.347-2.582-1.012-1.127-2.044-2.213-2.307-2.439-.243-.246-.952-.861-1.56-1.4a10.731,10.731,0,0,0-1.683-1.273,3.2,3.2,0,0,1-.872-.7,9.19,9.19,0,0,0-2.636-1.992,3.247,3.247,0,0,1-.974-.6.807.807,0,0,0-.507-.329,5.018,5.018,0,0,1-1.34-.823,5.364,5.364,0,0,0-1.34-.823,2.62,2.62,0,0,1-.913-.576,4.742,4.742,0,0,0-1.584-.845,6.39,6.39,0,0,1-1.422-.6,27.3,27.3,0,0,0-5.184-1.906c-1.119-.313-2.3-.687-2.643-.831a15.489,15.489,0,0,0-2.116-.522,4.733,4.733,0,0,1-1.647-.52,5.79,5.79,0,0,0-1.974-.42,14.02,14.02,0,0,1-2.158-.339c-.264-.1-2.28-.259-6.048-.486C473.015,240.309,472.96,240.308,472.889,240.308Z" fill="#fff"/>
    </g>
  </g>
</svg>
