<svg xmlns="http://www.w3.org/2000/svg" width="109.175" height="109.132" viewBox="0 0 109.175 109.132">
  <g id="Group_55" data-name="Group 55" transform="translate(-75.059 -238.29)">
    <g id="Group_54" data-name="Group 54">
      <g id="Group_10" data-name="Group 10">
        <path id="Path_4" data-name="Path 4" d="M143.7,258.021c1.669.194,3.763.981,4.33,1.636a7.816,7.816,0,0,0,.871.841,8.106,8.106,0,0,1,1.836,2.965c.34.96.352,2.345.251,28.668-.108,24.163-.152,27.891-.446,29.315a8.02,8.02,0,0,1-1.8,3.86c-.6.832-1.965,1.536-4.047,2.053l-2.142.516-13.079-.081c-12.346-.076-13.181-.1-14.87-.5a9.487,9.487,0,0,1-3.841-1.592,10.724,10.724,0,0,1-2.34-3.845c-.2-.816-.224-6.684-.083-29.441L108.52,264l.455-1.036a8.524,8.524,0,0,1,3.55-4.175c2.247-1,2.247-1,16.59-.957C136.531,257.875,143.09,257.956,143.7,258.021ZM117.079,263.6c-1.656.907-1.522-.947-1.679,24.479-.134,21.718-.119,22.634.244,23.187.827,1.289.339,1.224,13.866,1.328l12.325.1.757-.464a2.168,2.168,0,0,0,.964-1.115c.125-.427.237-8.637.307-23.265.093-24.978.165-23.49-1.216-24.191-.65-.35-1.689-.377-12.731-.445l-12.02-.074Zm10.67,53.751a9.926,9.926,0,0,0-1.186.685c-2.21,1.535-1.237,5.717,1.529,6.509a5.23,5.23,0,0,0,3.629-.467,4.216,4.216,0,0,0,1.874-3.187A4.023,4.023,0,0,0,127.749,317.352Z"/>
      </g>
      <path id="Path_45" data-name="Path 45" d="M122.7,257.813c1.743,0,3.85.007,6.417.016,7.416.046,13.976.127,14.586.192,1.669.194,3.763.981,4.33,1.636a7.816,7.816,0,0,0,.871.841,8.106,8.106,0,0,1,1.836,2.965c.34.96.352,2.345.251,28.668-.108,24.163-.152,27.891-.446,29.315a8.02,8.02,0,0,1-1.8,3.86c-.6.832-1.965,1.536-4.047,2.053l-2.142.516-13.079-.081c-12.346-.076-13.181-.1-14.87-.5a9.487,9.487,0,0,1-3.841-1.592,10.724,10.724,0,0,1-2.34-3.845c-.2-.816-.224-6.684-.083-29.441L108.52,264l.455-1.036a8.524,8.524,0,0,1,3.55-4.175C114.37,257.961,114.7,257.813,122.7,257.813Zm7.843-19.523c-2.224,0-4.867.142-7.665.41a17.013,17.013,0,0,0-3.467.549,2.962,2.962,0,0,1-1.164.42,63.722,63.722,0,0,0-7.939,2.192,5.954,5.954,0,0,1-1.245.44h0a5.549,5.549,0,0,0-1.245.522,11.7,11.7,0,0,1-1.981.823,1.96,1.96,0,0,0-.96.442c0,.1-.43.384-.982.646a10.231,10.231,0,0,0-1.595.927,2.559,2.559,0,0,1-.817.464h0a2.339,2.339,0,0,0-.8.5,12.183,12.183,0,0,1-1.473.928,9.16,9.16,0,0,0-1.637,1.09c-.43.385-1.331,1.112-2.027,1.658a42.55,42.55,0,0,0-5.388,4.836c-.6.689-1.436,1.621-1.867,2.067a7.644,7.644,0,0,0-1.15,1.48,8.833,8.833,0,0,1-1.335,1.683A7.676,7.676,0,0,0,84.47,262.1a7.036,7.036,0,0,1-.823,1.3,19.456,19.456,0,0,0-1.442,2.538A20.033,20.033,0,0,1,81.092,268a4.685,4.685,0,0,0-.412.812A6.372,6.372,0,0,1,80,270.1a9.856,9.856,0,0,0-.867,1.828c-.249.691-.6,1.626-.787,2.073a41.656,41.656,0,0,0-1.6,5.267,12.371,12.371,0,0,1-.835,3.173,21.027,21.027,0,0,0-.529,3.155,53.621,53.621,0,0,0-.313,7.74c.054,4.483.431,9.456.714,9.682a6.437,6.437,0,0,1,.678,2.429,40.45,40.45,0,0,0,1.9,6.307,11.42,11.42,0,0,1,.621,1.674,3.822,3.822,0,0,0,.481,1.225,8.524,8.524,0,0,1,.725,1.431,10.63,10.63,0,0,0,.624,1.226,19.687,19.687,0,0,1,.967,1.8,22.926,22.926,0,0,0,1.41,2.556c.3.47.726,1.186.927,1.574a35.859,35.859,0,0,0,3.457,4.4c.283.328,1.051,1.31,1.7,2.17a10.108,10.108,0,0,0,1.9,2.008c.406.267.73.534.73.616,0,.1.344.41.75.7a19.011,19.011,0,0,1,2.027,1.744,23.83,23.83,0,0,0,5.883,4.152,7.8,7.8,0,0,1,1.421.905,15.931,15.931,0,0,0,3.756,2.162,4.757,4.757,0,0,1,1.239.66c.629.473,3.332,1.467,7.257,2.612a8.393,8.393,0,0,1,1.321.5,5.169,5.169,0,0,0,1.119.292c.509.064,1.608.275,2.442.422a64.28,64.28,0,0,0,10.968.847,48.869,48.869,0,0,0,9.976-.839,18.2,18.2,0,0,1,2.2-.373h.015c.26,0,.479-.06.48-.16,0-.163.858-.4,3.327-.937a15.052,15.052,0,0,0,2.511-.8,7.29,7.29,0,0,1,1.367-.5h0a49.816,49.816,0,0,0,6.151-3.079,29.337,29.337,0,0,1,3.579-2.138,23.086,23.086,0,0,0,3.56-2.4,32.929,32.929,0,0,1,3.544-3.177,18.127,18.127,0,0,0,1.68-1.518c1.128-1.175,4.76-5.431,4.761-5.573a8.3,8.3,0,0,1,.822-1.136,5.184,5.184,0,0,0,.823-1.238,6.317,6.317,0,0,1,.823-1.319,5.657,5.657,0,0,0,.824-1.4.843.843,0,0,1,.37-.527,29.325,29.325,0,0,0,3.136-6.358,6.5,6.5,0,0,1,.6-1.484,14.566,14.566,0,0,0,.891-2.378,15.038,15.038,0,0,1,.767-2.175,5.224,5.224,0,0,0,.437-1.424,8.966,8.966,0,0,1,.315-1.587,57.741,57.741,0,0,0,1.193-11.81,45.126,45.126,0,0,0-.973-10.723,16.672,16.672,0,0,1-.373-2.264,3.711,3.711,0,0,0-.379-1.306,17.1,17.1,0,0,1-.881-2.552,14.419,14.419,0,0,0-.9-2.634,6.453,6.453,0,0,1-.521-1.47,1.967,1.967,0,0,0-.4-.858,4.131,4.131,0,0,1-.625-1.084,22.468,22.468,0,0,0-1.951-4.128,2.476,2.476,0,0,1-.484-.818,4.985,4.985,0,0,0-.686-1.145,8.046,8.046,0,0,1-.868-1.37,17.352,17.352,0,0,0-1.353-1.944,58.5,58.5,0,0,0-6.8-7.723c-.324-.246-.953-.8-1.4-1.211s-1.236-1.087-1.723-1.478a5.481,5.481,0,0,1-.973-.862.343.343,0,0,0-.284-.165,3.982,3.982,0,0,1-1.035-.7,11.665,11.665,0,0,0-1.379-.966c-.3-.165-1.177-.72-1.928-1.234a21.61,21.61,0,0,0-2.375-1.4,2.8,2.8,0,0,1-.954-.637c0-.1-.2-.246-.467-.309-.244-.083-1.179-.455-2.073-.807a43.085,43.085,0,0,0-6-2.217,13.555,13.555,0,0,1-1.932-.623,11.012,11.012,0,0,0-2.319-.585,4.816,4.816,0,0,1-1.648-.418c-.141-.245-3.866-.819-7.022-1.062C132.664,238.326,131.655,238.29,130.541,238.29Z" fill="#fff"/>
    </g>
    <g id="Group_52" data-name="Group 52">
      <path id="Path_46" data-name="Path 46" d="M117.9,263.138l12.02.074c11.042.068,12.081.095,12.731.445,1.381.7,1.309-.786,1.216,24.191-.07,14.628-.182,22.838-.307,23.265a2.168,2.168,0,0,1-.964,1.115l-.757.464-12.325-.1c-13.528-.1-13.039-.04-13.866-1.328-.363-.552-.378-1.469-.244-23.187.157-25.425.023-23.572,1.679-24.479Z" fill="#fff"/>
    </g>
    <g id="Group_53" data-name="Group 53">
      <path id="Path_47" data-name="Path 47" d="M129.575,316.921a4,4,0,0,1,4.02,3.972,4.216,4.216,0,0,1-1.874,3.187,5.014,5.014,0,0,1-2.5.607,4.122,4.122,0,0,1-1.125-.14c-2.766-.791-3.738-4.974-1.529-6.509a9.926,9.926,0,0,1,1.186-.685A4.119,4.119,0,0,1,129.575,316.921Z" fill="#fff"/>
    </g>
  </g>
</svg>
