<svg xmlns="http://www.w3.org/2000/svg" width="314.003" height="326.98" viewBox="0 0 314.003 326.98">
  <g id="Group_71" data-name="Group 71" transform="translate(-1280.274 -230.305)">
    <g id="Group_67" data-name="Group 67">
      <g id="Group_66" data-name="Group 66">
        <path id="Path_56" data-name="Path 56" d="M1590.418,480.105a16.023,16.023,0,0,1-16.02,16.036H1300.164a16.032,16.032,0,0,1-16.031-16.036V306.094a16.033,16.033,0,0,1,16.031-16.031H1574.4a16.024,16.024,0,0,1,16.02,16.031Z" fill="#44c3f4" stroke="#003189" stroke-miterlimit="10" stroke-width="7.718"/>
        <rect id="Rectangle_21" data-name="Rectangle 21" width="306.277" height="168.789" transform="translate(1284.141 308.707)" stroke-width="7.718" stroke="#003189" stroke-linecap="round" stroke-linejoin="round" fill="#fff"/>
        <rect id="Rectangle_22" data-name="Rectangle 22" width="57.875" height="43.398" transform="translate(1408.344 496.141)" fill="#44c3f4" stroke="#003189" stroke-miterlimit="10" stroke-width="7.718"/>
        <path id="Path_57" data-name="Path 57" d="M1485.273,539.539h-95.984s-12.5,0-13.8,13.887h123.6C1497.77,539.539,1485.273,539.539,1485.273,539.539Z" fill="#fff" stroke="#003189" stroke-linecap="round" stroke-linejoin="round" stroke-width="7.718"/>
      </g>
      <path id="Path_58" data-name="Path 58" d="M1301.391,368.457V451.8h74.094" fill="none" stroke="#003189" stroke-miterlimit="10" stroke-width="7.718"/>
    </g>
    <g id="Group_70" data-name="Group 70">
      <path id="Rectangle_23" data-name="Rectangle 23" d="M4.809,0H213.859a4.813,4.813,0,0,1,4.813,4.813V158.891a4.809,4.809,0,0,1-4.809,4.809H4.813A4.813,4.813,0,0,1,0,158.887V4.809A4.809,4.809,0,0,1,4.809,0Z" transform="translate(1327.945 234.164)" fill="#44c3f4" stroke="#003189" stroke-miterlimit="10" stroke-width="7.718"/>
      <rect id="Rectangle_24" data-name="Rectangle 24" width="112.082" height="100.84" transform="translate(1348.465 280.996)" fill="#fff" stroke="#003189" stroke-miterlimit="10" stroke-width="7.718"/>
      <path id="Path_59" data-name="Path 59" d="M1546.617,261.371v-22.4a4.809,4.809,0,0,0-4.812-4.809H1332.758a4.81,4.81,0,0,0-4.813,4.809v22.4Z" fill="#fff" stroke="#003189" stroke-miterlimit="10" stroke-width="7.718"/>
      <path id="Path_60" data-name="Path 60" d="M1437.285,331.828c0-.992-.058-1.98-.14-2.949l6.566-1.715-2.949-11.25-6.688,1.754a32.559,32.559,0,0,0-5.433-8.008l4.3-5.566-9.2-7.106-4.351,5.645a32.6,32.6,0,0,0-9.071-3.059v-7.152h-11.621v7.152a32.373,32.373,0,0,0-8.644,2.84l-4.27-5.707-9.3,6.973,4.215,5.636a34.187,34.187,0,0,0-4.257,5.567l-6.516-2.4-4.024,10.907,6.407,2.363a32.49,32.49,0,0,0-.571,6.078c0,.719.032,1.426.075,2.141l-6.508,1.7,2.949,11.242,6.363-1.66a32.64,32.64,0,0,0,5.414,8.371l-3.953,5.113,9.2,7.1,3.891-5.043a32.524,32.524,0,0,0,9.527,3.289v6.332h11.621v-6.332a32.577,32.577,0,0,0,9.094-3.07l3.82,5.105,9.3-6.965-3.871-5.183a32.373,32.373,0,0,0,4.3-5.879l6.145,2.258,4.011-10.907-6.261-2.308A33.022,33.022,0,0,0,1437.285,331.828Zm-32.785,21.91a22.317,22.317,0,1,1,22.328-22.324A22.312,22.312,0,0,1,1404.5,353.738Z" fill="none" stroke="#003189" stroke-miterlimit="10" stroke-width="7.718"/>
      <g id="Group_68" data-name="Group 68">
        <line id="Line_6" data-name="Line 6" x2="56.148" transform="translate(1479.313 288.598)" fill="#44c3f4" stroke="#003189" stroke-miterlimit="10" stroke-width="7.718"/>
        <line id="Line_7" data-name="Line 7" x2="13.137" transform="translate(1479.313 322.738)" fill="#44c3f4" stroke="#003189" stroke-miterlimit="10" stroke-width="7.718"/>
        <line id="Line_8" data-name="Line 8" x2="37.832" transform="translate(1497.629 322.738)" fill="#44c3f4" stroke="#003189" stroke-miterlimit="10" stroke-width="7.718"/>
        <line id="Line_9" data-name="Line 9" x2="21.508" transform="translate(1479.313 304.57)" fill="#44c3f4" stroke="#003189" stroke-miterlimit="10" stroke-width="7.718"/>
        <line id="Line_10" data-name="Line 10" x2="28.672" transform="translate(1506.789 304.57)" fill="#44c3f4" stroke="#003189" stroke-miterlimit="10" stroke-width="7.718"/>
        <line id="Line_11" data-name="Line 11" x2="56.148" transform="translate(1479.313 340.09)" fill="#44c3f4" stroke="#003189" stroke-miterlimit="10" stroke-width="7.718"/>
        <line id="Line_12" data-name="Line 12" x2="13.137" transform="translate(1479.313 374.234)" fill="#44c3f4" stroke="#003189" stroke-miterlimit="10" stroke-width="7.718"/>
        <line id="Line_13" data-name="Line 13" x2="37.832" transform="translate(1497.629 374.234)" fill="#44c3f4" stroke="#003189" stroke-miterlimit="10" stroke-width="7.718"/>
        <line id="Line_14" data-name="Line 14" x2="21.508" transform="translate(1479.313 356.074)" fill="#44c3f4" stroke="#003189" stroke-miterlimit="10" stroke-width="7.718"/>
        <line id="Line_15" data-name="Line 15" x2="28.672" transform="translate(1506.789 356.074)" fill="#44c3f4" stroke="#003189" stroke-miterlimit="10" stroke-width="7.718"/>
      </g>
      <g id="Group_69" data-name="Group 69">
        <line id="Line_16" data-name="Line 16" x2="8.875" transform="translate(1503.254 247.77)" fill="#fff" stroke="#003189" stroke-miterlimit="10" stroke-width="7.718"/>
        <line id="Line_17" data-name="Line 17" x2="8.879" transform="translate(1514.824 247.77)" fill="#fff" stroke="#003189" stroke-miterlimit="10" stroke-width="7.718"/>
        <line id="Line_18" data-name="Line 18" x2="8.879" transform="translate(1526.398 247.77)" fill="#fff" stroke="#003189" stroke-miterlimit="10" stroke-width="7.718"/>
      </g>
    </g>
  </g>
</svg>
