<svg xmlns="http://www.w3.org/2000/svg" width="256.101" height="201.973" viewBox="0 0 256.101 201.973">
  <g id="Group_61" data-name="Group 61" transform="translate(-180.723 -1418.43)">
    <g id="Group_59" data-name="Group 59" transform="translate(184.582 1520.483)">
      <rect id="Rectangle_12" data-name="Rectangle 12" width="34.936" height="90.92" fill="#44c3f4" stroke="#003189" stroke-miterlimit="10" stroke-width="7.718"/>
      <path id="Path_48" data-name="Path 48" d="M205.618,1657.215a6.231,6.231,0,1,1,6.236-6.234A6.231,6.231,0,0,1,205.618,1657.215Z" transform="translate(-188.153 -1574.135)" fill="#fff" stroke="#003189" stroke-miterlimit="10" stroke-width="7.718"/>
      <path id="Path_49" data-name="Path 49" d="M378.115,1599.945l60.232-24.908s13.152,8.656-.691,20.764l-100.63,54.508-106.4-25.208v-50.065l51.956-11.77,81,23.194s14.542,3.092,14.542,13.484c0,0-1.046,14.189-14.542,10.742l-45-10.742" transform="translate(-195.685 -1554.483)" fill="#fff" stroke="#003189" stroke-miterlimit="10" stroke-width="7.718"/>
    </g>
    <g id="Group_60" data-name="Group 60" transform="translate(252.85 1422.289)">
      <path id="Path_50" data-name="Path 50" d="M377.157,1478.484c0-1.42-.077-2.819-.2-4.2l9.358-2.452-4.2-16.03-9.536,2.5a46.777,46.777,0,0,0-7.745-11.412l6.13-7.941-13.119-10.12-6.2,8.036a46.462,46.462,0,0,0-12.936-4.357v-10.212H322.142V1432.5a46.512,46.512,0,0,0-12.322,4.046l-6.088-8.125-13.259,9.936,6.014,8.033a46.7,46.7,0,0,0-6.061,7.935l-9.3-3.418-5.73,15.55,9.136,3.359a46.7,46.7,0,0,0-.821,8.667c0,1.022.045,2.036.107,3.044l-9.266,2.428,4.2,16.036,9.059-2.374a47.077,47.077,0,0,0,7.73,11.922l-5.638,7.3,13.119,10.125,5.552-7.194a46.443,46.443,0,0,0,13.575,4.689v9.029h16.573v-9.029a46.618,46.618,0,0,0,12.974-4.369l5.436,7.271,13.265-9.933-5.523-7.375a47.175,47.175,0,0,0,6.13-8.394l8.745,3.219,5.721-15.55-8.928-3.287A46.131,46.131,0,0,0,377.157,1478.484ZM330.43,1500.97a23.078,23.078,0,1,1,23.079-23.077A23.08,23.08,0,0,1,330.43,1500.97Z" transform="translate(-274.547 -1422.289)" fill="#44c3f4" stroke="#003189" stroke-miterlimit="10" stroke-width="7.718"/>
    </g>
  </g>
</svg>
