<svg xmlns="http://www.w3.org/2000/svg" width="279.05" height="314.004" viewBox="0 0 279.05 314.004">
  <g id="Group_93" data-name="Group 93" transform="translate(-1872.356 -1367.828)">
    <path id="Path_79" data-name="Path 79" d="M2069.867,1474.82v-6.351a57.99,57.99,0,0,0-115.98,0v6.351c-6.141,0-11.117,7.059-11.117,15.762s4.976,15.758,11.117,15.758c.183,0,.355-.024.547-.039a57.974,57.974,0,0,0,114.894,0c.184.015.367.039.539.039,6.153,0,11.129-7.059,11.129-15.758S2076.02,1474.82,2069.867,1474.82Z" fill="#fff" stroke="#003189" stroke-linecap="round" stroke-linejoin="round" stroke-width="7.718"/>
    <path id="Path_80" data-name="Path 80" d="M2011.875,1556.473" fill="#fff" stroke="#003189" stroke-linecap="round" stroke-linejoin="round" stroke-width="7.718"/>
    <path id="Path_81" data-name="Path 81" d="M2137.98,1623.563c-8.2-31.067-32.742-34.454-32.742-34.454l-67.375-16.078v-22.449a57.935,57.935,0,0,1-51.961,0v22.449l-67.375,16.078s-24.547,3.387-32.765,34.454l-9.547,54.41h271.332Z" fill="#fff" stroke="#003189" stroke-linecap="round" stroke-linejoin="round" stroke-width="7.718"/>
    <g id="Group_91" data-name="Group 91">
      <path id="Path_82" data-name="Path 82" d="M1984.777,1572.059l-25.418,6.07,29.379,35.773,21.477-26.223Z" fill="#fff" stroke="#003189" stroke-linecap="round" stroke-linejoin="round" stroke-width="7.718"/>
      <path id="Path_83" data-name="Path 83" d="M2039.129,1572.293l25.277,6.039-29.219,35.57-24.973-26.223Z" fill="#fff" stroke="#003189" stroke-linecap="round" stroke-linejoin="round" stroke-width="7.718"/>
    </g>
    <path id="Path_84" data-name="Path 84" d="M2011.328,1587.68l-13.145,16.043,13.145,13.855,14.242-14.949Z" fill="#44c3f4" stroke="#003189" stroke-miterlimit="10" stroke-width="7.718"/>
    <path id="Path_85" data-name="Path 85" d="M2018.129,1610.98l-6.8,6.6-5.816-6.137-15.879,66.27h44.488Z" fill="#44c3f4" stroke="#003189" stroke-miterlimit="10" stroke-width="7.718"/>
    <g id="Group_92" data-name="Group 92">
      <path id="Path_86" data-name="Path 86" d="M2019.52,1403.957l-2.668-32.27H2006.9l-2.656,32.27Z" fill="#44c3f4" stroke="#003189" stroke-miterlimit="10" stroke-width="7.718"/>
      <path id="Path_87" data-name="Path 87" d="M2078.188,1456.832c0-21.379-8.969-43.1-26.473-57.355a63.521,63.521,0,0,0-14.188-8.723l-1.461-9.4a59.506,59.506,0,0,0-18.847-5.282l2.3,27.883h-15.274l2.3-27.973a48.548,48.548,0,0,0-18.852,5.372l-1.683,9.4c-17.512,8.043-30.219,23.6-36.2,40.769a76.829,76.829,0,0,0-4.235,25.309h132.61" fill="#fff" stroke="#003189" stroke-miterlimit="10" stroke-width="7.718"/>
      <line id="Line_51" data-name="Line 51" x2="5.078" y2="32.746" transform="translate(2036.066 1381.355)" fill="none" stroke="#003189" stroke-miterlimit="10" stroke-width="7.718"/>
      <line id="Line_52" data-name="Line 52" y1="32.746" x2="5.848" transform="translate(1981.848 1381.355)" fill="none" stroke="#003189" stroke-miterlimit="10" stroke-width="7.718"/>
      <path id="Path_88" data-name="Path 88" d="M1967.324,1422.875s-6.719,11.793-6.2,20.793h41.473" fill="none" stroke="#003189" stroke-miterlimit="10" stroke-width="7.718"/>
      <path id="Path_89" data-name="Path 89" d="M2078.926,1456.832H1944.918s-6.039.231-5.988,9.516h145.894C2084.887,1457.063,2078.926,1456.832,2078.926,1456.832Z" fill="#fff" stroke="#003189" stroke-miterlimit="10" stroke-width="7.718"/>
    </g>
  </g>
</svg>
