<svg xmlns="http://www.w3.org/2000/svg" width="160.785" height="160.785" viewBox="0 0 160.785 160.785">
  <g id="Group_135" data-name="Group 135" transform="translate(0 0)">
    <circle id="Ellipse_14" data-name="Ellipse 14" cx="70.128" cy="70.128" r="70.128" transform="translate(0 138.469) rotate(-80.845)" fill="#001746"/>
    <g id="Group_134" data-name="Group 134" transform="translate(31.07 38.614)">
      <path id="Path_140" data-name="Path 140" d="M287.315,203.066a9.461,9.461,0,0,0-12.243-.942l-8.373,5.364c-.039.013-5.419,2.146-19.876-12.256-14.3-14.354-12.308-19.756-12.328-19.756v0l5.364-8.406a9.484,9.484,0,0,0-.87-12.334L231,146.754a9.434,9.434,0,0,0-14.224,1.01c-.026.039-.055.081-.081.123l-4.01,6.588c-.669.909-15.893,22.711,17.863,56.711l.318.315c17.7,17.575,32.091,21.87,41.931,21.87,9.071,0,14.286-3.646,14.672-3.932l6.815-4.162a9.437,9.437,0,0,0,1.013-14.224Z" transform="translate(-208.689 -143.992)" fill="#fff"/>
      <path id="Path_141" data-name="Path 141" d="M242,173.494a1.548,1.548,0,0,0,2.185,0,14.3,14.3,0,0,0,0-20.195,14.626,14.626,0,0,0-20.195,0,1.547,1.547,0,0,0,2.188,2.188,11.454,11.454,0,0,1,15.821,0,11.2,11.2,0,0,1,0,15.818A1.548,1.548,0,0,0,242,173.494Z" transform="translate(-175.322 -132.168)" fill="#fff"/>
      <path id="Path_142" data-name="Path 142" d="M252.768,185.351a1.56,1.56,0,0,0,1.094-.451,22.369,22.369,0,1,0-31.633-31.636,1.546,1.546,0,1,0,2.185,2.188,19.275,19.275,0,0,1,27.26,27.26,1.545,1.545,0,0,0,1.094,2.64Z" transform="translate(-179.278 -137.852)" fill="#fff"/>
      <path id="Path_143" data-name="Path 143" d="M222.622,155.336a27.515,27.515,0,1,1,38.915,38.909,1.546,1.546,0,0,0,2.185,2.188,30.607,30.607,0,0,0-43.285-43.285,1.546,1.546,0,0,0,2.185,2.188Z" transform="translate(-183.311 -143.561)" fill="#fff"/>
    </g>
  </g>
</svg>
