<svg xmlns="http://www.w3.org/2000/svg" width="356.445" height="260.351" viewBox="0 0 356.445 260.351">
  <g id="Group_82" data-name="Group 82" transform="translate(-1830.93 -260.891)">
    <g id="Group_73" data-name="Group 73">
      <path id="Path_61" data-name="Path 61" d="M1840.246,517.383h247.176V270.207Zm200.942-45.942h-91.942l91.942-91.945Z" fill="#44c3f4" stroke="#003189" stroke-miterlimit="10" stroke-width="7.718"/>
      <g id="Group_72" data-name="Group 72">
        <line id="Line_19" data-name="Line 19" y2="12.84" transform="translate(1870.531 504.543)" fill="#44c3f4" stroke="#003189" stroke-miterlimit="10" stroke-width="7.718"/>
        <line id="Line_20" data-name="Line 20" y2="12.84" transform="translate(1886.098 504.543)" fill="#44c3f4" stroke="#003189" stroke-miterlimit="10" stroke-width="7.718"/>
        <line id="Line_21" data-name="Line 21" y2="12.84" transform="translate(1901.672 504.543)" fill="#44c3f4" stroke="#003189" stroke-miterlimit="10" stroke-width="7.718"/>
        <line id="Line_22" data-name="Line 22" y2="12.84" transform="translate(1917.238 504.543)" fill="#44c3f4" stroke="#003189" stroke-miterlimit="10" stroke-width="7.718"/>
        <line id="Line_23" data-name="Line 23" y2="12.84" transform="translate(1932.816 504.543)" fill="#44c3f4" stroke="#003189" stroke-miterlimit="10" stroke-width="7.718"/>
        <line id="Line_24" data-name="Line 24" y2="12.84" transform="translate(1948.383 504.543)" fill="#44c3f4" stroke="#003189" stroke-miterlimit="10" stroke-width="7.718"/>
        <line id="Line_25" data-name="Line 25" y2="12.84" transform="translate(1963.949 504.543)" fill="#44c3f4" stroke="#003189" stroke-miterlimit="10" stroke-width="7.718"/>
        <line id="Line_26" data-name="Line 26" y2="12.84" transform="translate(1979.527 504.543)" fill="#44c3f4" stroke="#003189" stroke-miterlimit="10" stroke-width="7.718"/>
        <line id="Line_27" data-name="Line 27" y2="12.84" transform="translate(1995.094 504.543)" fill="#44c3f4" stroke="#003189" stroke-miterlimit="10" stroke-width="7.718"/>
        <line id="Line_28" data-name="Line 28" y2="12.84" transform="translate(2010.672 504.543)" fill="#44c3f4" stroke="#003189" stroke-miterlimit="10" stroke-width="7.718"/>
        <line id="Line_29" data-name="Line 29" y2="12.84" transform="translate(2026.238 504.543)" fill="#44c3f4" stroke="#003189" stroke-miterlimit="10" stroke-width="7.718"/>
        <line id="Line_30" data-name="Line 30" y2="12.84" transform="translate(2041.813 504.543)" fill="#44c3f4" stroke="#003189" stroke-miterlimit="10" stroke-width="7.718"/>
        <line id="Line_31" data-name="Line 31" y2="12.84" transform="translate(2057.383 504.543)" fill="#44c3f4" stroke="#003189" stroke-miterlimit="10" stroke-width="7.718"/>
        <line id="Line_32" data-name="Line 32" y2="12.84" transform="translate(2072.957 504.543)" fill="#44c3f4" stroke="#003189" stroke-miterlimit="10" stroke-width="7.718"/>
      </g>
    </g>
    <g id="Group_79" data-name="Group 79">
      <path id="Rectangle_25" data-name="Rectangle 25" d="M8.555,0h98.769a8.555,8.555,0,0,1,8.555,8.555V156.141a8.559,8.559,0,0,1-8.559,8.559H8.555A8.555,8.555,0,0,1,0,156.145V8.555A8.555,8.555,0,0,1,8.555,0Z" transform="translate(2067.637 312.305)" fill="#fff" stroke="#003189" stroke-miterlimit="10" stroke-width="7.718"/>
      <g id="Group_78" data-name="Group 78">
        <rect id="Rectangle_26" data-name="Rectangle 26" width="89.641" height="19.918" transform="translate(2080.75 332.125)" fill="#44c3f4" stroke="#003189" stroke-miterlimit="10" stroke-width="7.718"/>
        <g id="Group_77" data-name="Group 77">
          <g id="Group_74" data-name="Group 74">
            <rect id="Rectangle_27" data-name="Rectangle 27" width="16.965" height="16.965" transform="translate(2089.012 369.219)" fill="#44c3f4" stroke="#003189" stroke-miterlimit="10" stroke-width="7.718"/>
            <rect id="Rectangle_28" data-name="Rectangle 28" width="16.965" height="16.965" transform="translate(2117.094 369.219)" fill="#44c3f4" stroke="#003189" stroke-miterlimit="10" stroke-width="7.718"/>
            <rect id="Rectangle_29" data-name="Rectangle 29" width="16.965" height="16.965" transform="translate(2145.176 369.219)" fill="#44c3f4" stroke="#003189" stroke-miterlimit="10" stroke-width="7.718"/>
          </g>
          <g id="Group_75" data-name="Group 75">
            <rect id="Rectangle_30" data-name="Rectangle 30" width="16.965" height="16.957" transform="translate(2089.012 397.734)" fill="#44c3f4" stroke="#003189" stroke-miterlimit="10" stroke-width="7.718"/>
            <rect id="Rectangle_31" data-name="Rectangle 31" width="16.965" height="16.957" transform="translate(2117.094 397.734)" fill="#44c3f4" stroke="#003189" stroke-miterlimit="10" stroke-width="7.718"/>
            <rect id="Rectangle_32" data-name="Rectangle 32" width="16.965" height="16.957" transform="translate(2145.176 397.734)" fill="#44c3f4" stroke="#003189" stroke-miterlimit="10" stroke-width="7.718"/>
          </g>
          <g id="Group_76" data-name="Group 76">
            <rect id="Rectangle_33" data-name="Rectangle 33" width="16.965" height="16.965" transform="translate(2089.012 426.254)" fill="#44c3f4" stroke="#003189" stroke-miterlimit="10" stroke-width="7.718"/>
            <rect id="Rectangle_34" data-name="Rectangle 34" width="16.965" height="16.965" transform="translate(2117.094 426.254)" fill="#44c3f4" stroke="#003189" stroke-miterlimit="10" stroke-width="7.718"/>
            <rect id="Rectangle_35" data-name="Rectangle 35" width="16.965" height="16.965" transform="translate(2145.176 426.254)" fill="#44c3f4" stroke="#003189" stroke-miterlimit="10" stroke-width="7.718"/>
          </g>
        </g>
      </g>
      <path id="Path_62" data-name="Path 62" d="M2172.691,440.07v18.188a8.566,8.566,0,0,1-8.562,8.558h-28.3" fill="none" stroke="#003189" stroke-miterlimit="10" stroke-width="7.718"/>
    </g>
    <g id="Group_81" data-name="Group 81">
      <path id="Path_63" data-name="Path 63" d="M1869.832,448.016l-15.9-15.891L1974,312.051l15.891,15.9Z" fill="#44c3f4" stroke="#003189" stroke-linecap="round" stroke-linejoin="round" stroke-width="7.718"/>
      <path id="Path_64" data-name="Path 64" d="M1989.895,327.953,1974,312.051l8.422-8.426,15.9,15.9Z" fill="none" stroke="#003189" stroke-linecap="round" stroke-linejoin="round" stroke-width="7.718"/>
      <path id="Path_65" data-name="Path 65" d="M1998.328,319.523l4.57-4.578a11.239,11.239,0,1,0-15.89-15.9l-4.582,4.578Z" fill="none" stroke="#003189" stroke-linecap="round" stroke-linejoin="round" stroke-width="7.718"/>
      <path id="Path_66" data-name="Path 66" d="M1853.93,432.125l15.9,15.891-26.98,11.078Z" fill="none" stroke="#003189" stroke-linecap="round" stroke-linejoin="round" stroke-width="7.718"/>
      <path id="Path_67" data-name="Path 67" d="M1848.324,445.785l-5.473,13.309,13.316-5.465Z" fill="none" stroke="#003189" stroke-linecap="round" stroke-linejoin="round" stroke-width="7.718"/>
      <g id="Group_80" data-name="Group 80">
        <line id="Line_33" data-name="Line 33" x1="120.063" y2="120.066" transform="translate(1861.887 320.004)" fill="none" stroke="#003189" stroke-linecap="round" stroke-linejoin="round" stroke-width="7.718"/>
      </g>
    </g>
  </g>
</svg>
